<?xml version="1.0" encoding="UTF-8"?><svg id="Layer_1" xmlns="http://www.w3.org/2000/svg" viewBox="0 0 50 50"><g id="instagram"><circle id="circle" cx="25" cy="25" r="25" style="fill:#191817; stroke-width:0px;"/><g id="logo"><path d="M40.06,25c0-.5,0-.98,0-1.45,0-1.53,0-2.95-.09-4.76-.06-1.33-.27-2.57-.7-3.66-.38-1.03-.97-1.91-1.73-2.67-.71-.75-1.6-1.32-2.67-1.74-1.1-.43-2.32-.66-3.66-.7-1.25-.08-3.45-.1-6.21-.09-2.76-.01-4.96.01-6.21.09-1.34.04-2.56.27-3.66.7-1.06.41-1.95.99-2.67,1.74-.76.76-1.35,1.64-1.73,2.67-.44,1.09-.64,2.32-.7,3.66-.12,2.36-.07,4.06-.09,6.21h0c0,.51,0,.98,0,1.45,0,1.53,0,2.95.09,4.76.06,1.33.27,2.57.7,3.66.38,1.03.97,1.91,1.73,2.67.71.75,1.6,1.32,2.67,1.74,1.1.43,2.32.66,3.66.7,1.25.08,3.45.1,6.21.09,2.76.01,4.96-.01,6.21-.09,1.34-.04,2.56-.27,3.66-.7,1.06-.41,1.95-.99,2.67-1.74.76-.76,1.35-1.64,1.73-2.67.44-1.09.64-2.32.7-3.66.12-2.36.07-4.06.09-6.21h0ZM37.26,31.07v.02c-.05,1.11-.22,2.04-.51,2.76v.03s-.03.03-.03.03c-.23.63-.6,1.19-1.11,1.69l-.02.02-.02.03c-.43.46-.98.81-1.68,1.08h-.01c-.8.32-1.72.49-2.74.52h-.05s-.05,0-.05,0c-.91.06-2.52.09-4.77.09-.4,0-.82,0-1.25,0h-.02c-.43,0-.85,0-1.25,0-2.25,0-3.86-.03-4.77-.09h-.05s-.05,0-.05,0c-1.02-.03-1.94-.2-2.74-.51h-.01c-.7-.27-1.25-.63-1.68-1.08l-.02-.03-.02-.02c-.51-.51-.87-1.06-1.11-1.69v-.03s-.03-.03-.03-.03c-.29-.72-.46-1.65-.51-2.76v-.02c-.08-1.62-.08-2.93-.08-4.32,0-.56,0-1.13,0-1.74,0-.61,0-1.19,0-1.74,0-1.39,0-2.7.08-4.32v-.02c.05-1.11.22-2.04.51-2.76v-.03s.03-.03.03-.03c.23-.63.6-1.19,1.11-1.69l.02-.02.02-.03c.43-.46.98-.81,1.68-1.08h.01c.8-.32,1.72-.49,2.74-.52h.05s.05,0,.05,0c.91-.06,2.52-.09,4.77-.09.4,0,.82,0,1.25,0h.02c.43,0,.85,0,1.25,0,2.25,0,3.86.03,4.77.09h.05s.05,0,.05,0c1.02.03,1.94.2,2.74.51h.01c.7.27,1.25.63,1.68,1.08l.02.03.02.02c.51.51.87,1.06,1.11,1.69v.03s.03.03.03.03c.29.72.46,1.65.51,2.76v.02c.08,1.62.08,2.94.08,4.32,0,.56,0,1.13,0,1.74,0,.61,0,1.19,0,1.74,0,1.39,0,2.7-.08,4.32Z" style="fill:#fff; stroke-width:0px;"/><path d="M25,17.27c-4.27,0-7.73,3.46-7.73,7.73s3.46,7.73,7.73,7.73,7.73-3.46,7.73-7.73-3.46-7.73-7.73-7.73ZM25,30.02c-2.77,0-5.02-2.25-5.02-5.02s2.25-5.02,5.02-5.02,5.02,2.25,5.02,5.02-2.25,5.02-5.02,5.02Z" style="fill:#fff; stroke-width:0px;"/><path d="M33.04,15.15c-1,0-1.81.81-1.81,1.81s.81,1.81,1.81,1.81,1.81-.81,1.81-1.81-.81-1.81-1.81-1.81Z" style="fill:#fff; stroke-width:0px;"/></g></g></svg>