<?xml version="1.0" encoding="UTF-8"?><svg id="Layer_1" xmlns="http://www.w3.org/2000/svg" viewBox="0 0 50 50"><g id="youtube"><circle id="circle" cx="25" cy="25" r="25" style="fill:#191817; stroke-width:0px;"/><path id="logo" d="M40,17.41c-.26-.99-1.08-2.32-2.77-2.79-2.22-.57-7.86-.6-12.23-.66h0c-2.19.03-4.69.05-6.93.14-2.23.09-4.2.24-5.31.52-1.69.47-2.51,1.79-2.77,2.79-.44,1.43-.65,5.26-.65,7.59s.22,6.16.65,7.59c.26.99,1.08,2.32,2.77,2.79,2.22.57,7.86.6,12.23.66h0c2.19-.03,4.69-.05,6.93-.14,2.23-.09,4.2-.24,5.31-.52,1.69-.47,2.51-1.79,2.77-2.79.44-1.43.65-5.26.65-7.59s-.22-6.16-.65-7.59ZM21.8,29.66v-9.31l8.18,4.66-8.18,4.66Z" style="fill:#fff; stroke-width:0px;"/></g></svg>